<?xml version="1.0" encoding="UTF-8" standalone="no"?>
<svg
   xmlns:dc="http://purl.org/dc/elements/1.1/"
   xmlns:cc="http://creativecommons.org/ns#"
   xmlns:rdf="http://www.w3.org/1999/02/22-rdf-syntax-ns#"
   xmlns:svg="http://www.w3.org/2000/svg"
   xmlns="http://www.w3.org/2000/svg"
   xmlns:sodipodi="http://sodipodi.sourceforge.net/DTD/sodipodi-0.dtd"
   xmlns:inkscape="http://www.inkscape.org/namespaces/inkscape"
   width="134.21576mm"
   height="99.355835mm"
   version="1.1"
   viewBox="0 0 475.55936 352.05"
   id="svg4573"
   sodipodi:docname="calendar.svg"
   inkscape:version="0.92.1 r15371">
  <metadata
     id="metadata4579">
    <rdf:RDF>
      <cc:Work
         rdf:about="">
        <dc:format>image/svg+xml</dc:format>
        <dc:type
           rdf:resource="http://purl.org/dc/dcmitype/StillImage" />
        <dc:title></dc:title>
      </cc:Work>
    </rdf:RDF>
  </metadata>
  <defs
     id="defs4577" />
  <sodipodi:namedview
     pagecolor="#ffffff"
     bordercolor="#666666"
     borderopacity="1"
     objecttolerance="10"
     gridtolerance="10"
     guidetolerance="10"
     inkscape:pageopacity="0"
     inkscape:pageshadow="2"
     inkscape:window-width="1920"
     inkscape:window-height="1018"
     id="namedview4575"
     showgrid="false"
     inkscape:zoom="1.0502563"
     inkscape:cx="396.57748"
     inkscape:cy="154.55901"
     inkscape:window-x="-8"
     inkscape:window-y="-8"
     inkscape:window-maximized="1"
     inkscape:current-layer="g4571"
     showborder="true"
     inkscape:showpageshadow="false"
     fit-margin-top="0"
     fit-margin-left="0"
     fit-margin-right="0"
     fit-margin-bottom="0" />
  <g
     transform="translate(-137.06809,-95.389)"
     id="g4571">
    <rect
       x="137.06"
       y="95.389"
       width="475.57001"
       height="352.04999"
       ry="5.9507999"
       id="rect4489"
       style="fill:#ffffff" />
    <rect
       x="137.06"
       y="95.389"
       width="475.57001"
       height="79.196999"
       ry="1.3387001"
       id="rect4491"
       style="fill:#42a5f5" />
    <rect
       x="168.88"
       y="268.04001"
       width="48.425999"
       height="27.672001"
       ry="1.3387001"
       id="rect4493"
       style="fill:#4fc3f7" />
    <rect
       x="168.88"
       y="306.16"
       width="48.425999"
       height="27.672001"
       ry="1.3387001"
       id="rect4495"
       style="fill:#4fc3f7" />
    <rect
       x="168.88"
       y="344.48001"
       width="48.425999"
       height="27.672001"
       ry="1.3387001"
       id="rect4497"
       style="fill:#4fc3f7" />
    <rect
       x="168.88"
       y="383.57001"
       width="48.425999"
       height="27.672001"
       ry="1.3387001"
       id="rect4499"
       style="fill:#4fc3f7" />
    <rect
       x="229.14999"
       y="268.04001"
       width="48.425999"
       height="27.672001"
       ry="1.3387001"
       id="rect4501"
       style="fill:#4fc3f7" />
    <rect
       x="229.14999"
       y="306.16"
       width="48.425999"
       height="27.672001"
       ry="1.3387001"
       id="rect4503"
       style="fill:#4fc3f7" />
    <rect
       x="229.14999"
       y="344.48001"
       width="48.425999"
       height="27.672001"
       ry="1.3387001"
       id="rect4505"
       style="fill:#4fc3f7" />
    <rect
       x="229.14999"
       y="383.57001"
       width="48.425999"
       height="27.672001"
       ry="1.3387001"
       id="rect4507"
       style="fill:#4fc3f7" />
    <rect
       x="288.32999"
       y="268.04001"
       width="48.425999"
       height="27.672001"
       ry="1.3387001"
       id="rect4509"
       style="fill:#4fc3f7" />
    <rect
       x="288.32999"
       y="306.16"
       width="48.425999"
       height="27.672001"
       ry="1.3387001"
       id="rect4511"
       style="fill:#4fc3f7" />
    <rect
       x="288.32999"
       y="344.48001"
       width="48.425999"
       height="27.672001"
       ry="1.3387001"
       id="rect4513"
       style="fill:#4fc3f7" />
    <rect
       x="288.32999"
       y="383.57001"
       width="48.425999"
       height="27.672001"
       ry="1.3387001"
       id="rect4515"
       style="fill:#4fc3f7" />
    <rect
       x="348.60001"
       y="230.67999"
       width="48.425999"
       height="27.672001"
       ry="1.3387001"
       id="rect4517"
       style="fill:#4fc3f7" />
    <rect
       x="348.60001"
       y="268.04001"
       width="48.425999"
       height="27.672001"
       ry="1.3387001"
       id="rect4519"
       style="fill:#4fc3f7" />
    <rect
       x="348.60001"
       y="306.16"
       width="48.425999"
       height="27.672001"
       ry="1.3387001"
       id="rect4521"
       style="fill:#4fc3f7" />
    <rect
       x="348.60001"
       y="344.48001"
       width="48.425999"
       height="27.672001"
       ry="1.3387001"
       id="rect4523"
       style="fill:#4fc3f7" />
    <rect
       x="348.60001"
       y="383.57001"
       width="48.425999"
       height="27.672001"
       ry="1.3387001"
       id="rect4525"
       style="fill:#4fc3f7" />
    <rect
       x="408.85999"
       y="230.67999"
       width="48.425999"
       height="27.672001"
       ry="1.3387001"
       id="rect4527"
       style="fill:#4fc3f7" />
    <rect
       x="408.85999"
       y="268.04001"
       width="48.425999"
       height="27.672001"
       ry="1.3387001"
       id="rect4529"
       style="fill:#4fc3f7" />
    <rect
       x="408.85999"
       y="306.16"
       width="48.425999"
       height="27.672001"
       ry="1.3387001"
       id="rect4531"
       style="fill:#4fc3f7" />
    <rect
       x="408.85999"
       y="344.48001"
       width="48.425999"
       height="27.672001"
       ry="1.3387001"
       id="rect4533"
       style="fill:#4fc3f7" />
    <rect
       x="408.85999"
       y="383.57001"
       width="48.425999"
       height="27.672001"
       ry="1.3387001"
       id="rect4535"
       style="fill:#4fc3f7" />
    <rect
       x="468.70001"
       y="230.67999"
       width="48.425999"
       height="27.672001"
       ry="1.3387001"
       id="rect4537"
       style="fill:#4fc3f7" />
    <rect
       x="468.70001"
       y="268.04001"
       width="48.425999"
       height="27.672001"
       ry="1.3387001"
       id="rect4539"
       style="fill:#4fc3f7" />
    <rect
       x="468.70001"
       y="306.16"
       width="48.425999"
       height="27.672001"
       ry="1.3387001"
       id="rect4541"
       style="fill:#4fc3f7" />
    <rect
       x="468.70001"
       y="344.48001"
       width="48.425999"
       height="27.672001"
       ry="1.3387001"
       id="rect4543"
       style="fill:#4fc3f7" />
    <rect
       x="530.06"
       y="230.67999"
       width="48.425999"
       height="27.672001"
       ry="1.3387001"
       id="rect4545"
       style="fill:#ff7043" />
    <rect
       x="530.06"
       y="268.04001"
       width="48.425999"
       height="27.672001"
       ry="1.3387001"
       id="rect4547"
       style="fill:#ff7043" />
    <rect
       x="530.06"
       y="306.16"
       width="48.425999"
       height="27.672001"
       ry="1.3387001"
       id="rect4549"
       style="fill:#ff7043" />
    <rect
       x="530.06"
       y="344.48001"
       width="48.425999"
       height="27.672001"
       ry="1.3387001"
       id="rect4551"
       style="fill:#ff7043" />
    <rect
       x="168.88"
       y="190.3"
       width="48.425999"
       height="11.53"
       ry="0.55778998"
       id="rect4553"
       style="fill:#4fc3f7" />
    <rect
       x="229.14999"
       y="190.3"
       width="48.425999"
       height="11.53"
       ry="0.55778998"
       id="rect4555"
       style="fill:#4fc3f7" />
    <rect
       x="288.32999"
       y="190.3"
       width="48.425999"
       height="11.53"
       ry="0.55778998"
       id="rect4557"
       style="fill:#4fc3f7" />
    <rect
       x="348.60001"
       y="190.3"
       width="48.425999"
       height="11.53"
       ry="0.55778998"
       id="rect4559"
       style="fill:#4fc3f7" />
    <rect
       x="408.85999"
       y="190.3"
       width="48.425999"
       height="11.53"
       ry="0.55778998"
       id="rect4561"
       style="fill:#4fc3f7" />
    <rect
       x="468.70001"
       y="190.3"
       width="48.425999"
       height="11.53"
       ry="0.55778998"
       id="rect4563"
       style="fill:#4fc3f7" />
    <rect
       x="530.06"
       y="190.3"
       width="48.425999"
       height="11.53"
       ry="0.55778998"
       id="rect4565"
       style="fill:#ff7043" />
    <rect
       x="166.81"
       y="117.45"
       width="218.45"
       height="14.582"
       ry="4.4380002"
       id="rect4567"
       style="fill:#ffffff" />
    <rect
       x="166.81"
       y="140.09"
       width="153.77"
       height="13.245"
       ry="4.0310001"
       id="rect4569"
       style="fill:#ffffff" />
  </g>
  <g
     id="g4639"
     transform="matrix(1.5763703,0,0,1.5333272,199.7553,183.23477)"
     style="fill:#800080;fill-rule:evenodd">
    <rect
       id="rect4619"
       height="50"
       width="50"
       x="0"
       y="0"
       style="fill:#800080;fill-opacity:0;fill-rule:evenodd" />
    <path
       id="path4621"
       style="color:#000000;text-indent:0;text-decoration:none;text-decoration-line:none;text-decoration-style:solid;text-decoration-color:#000000;text-transform:none;white-space:normal;isolation:auto;mix-blend-mode:normal;solid-color:#000000;fill:#f44336;fill-opacity:1;fill-rule:evenodd;color-rendering:auto;image-rendering:auto;shape-rendering:auto"
       d="m 25,6.6565 c -10.103,0 -18.324,8.2194 -18.324,18.323 1.14e-5,10.103 8.2209,18.324 18.324,18.324 10.1031,0 18.324,-8.2209 18.324,-18.324 C 43.323989,14.8765 35.1031,6.6565 25,6.6565 Z m 0,2.7827 c 8.5993,0 15.54,6.9409 15.54,15.54 -10e-6,8.5993 -6.9409,15.542 -15.54,15.542 -8.5993,7.7e-5 -15.54,-6.9424 -15.54,-15.542 9.7e-6,-8.5993 6.9409,-15.54 15.54,-15.54 z"
       inkscape:connector-curvature="0" />
    <path
       id="path4623"
       d="m 32.528,16.212 c -0.39394,-0.39394 -1.0278,-0.39394 -1.4217,0 l -5.2591,5.2591 -4.3557,4.3557 -5.2591,5.2591 c -0.39394,0.39394 -0.39394,1.0278 1e-6,1.4217 l 1.2398,1.2398 c 0.39394,0.39394 1.0278,0.39394 1.4217,1e-6 l 5.2591,-5.2591 4.3557,-4.3557 5.2591,-5.2591 c 0.39394,-0.39394 0.39394,-1.0278 -10e-7,-1.4217 z"
       inkscape:connector-curvature="0"
       style="fill:#f44336;fill-opacity:1;fill-rule:evenodd" />
    <path
       id="path4625"
       d="m 16.232,17.452 c -0.39394,0.39394 -0.39394,1.0278 0,1.4217 l 5.2591,5.2591 4.3557,4.3557 5.2591,5.2591 c 0.39394,0.39394 1.0278,0.39394 1.4217,-10e-7 l 1.2398,-1.2398 c 0.39394,-0.39394 0.39394,-1.0278 10e-7,-1.4217 l -5.2591,-5.2591 -4.3557,-4.3557 -5.2591,-5.2591 c -0.39394,-0.39394 -1.0278,-0.39394 -1.4217,1e-6 l -1.2398,1.2398 z"
       inkscape:connector-curvature="0"
       style="fill:#f44336;fill-opacity:1;fill-rule:evenodd" />
  </g>
</svg>
