<?xml version="1.0" encoding="UTF-8" standalone="no"?>
<svg
   xmlns:dc="http://purl.org/dc/elements/1.1/"
   xmlns:cc="http://creativecommons.org/ns#"
   xmlns:rdf="http://www.w3.org/1999/02/22-rdf-syntax-ns#"
   xmlns:svg="http://www.w3.org/2000/svg"
   xmlns="http://www.w3.org/2000/svg"
   xmlns:sodipodi="http://sodipodi.sourceforge.net/DTD/sodipodi-0.dtd"
   xmlns:inkscape="http://www.inkscape.org/namespaces/inkscape"
   viewBox="0 0 232.15764 340.16553"
   version="1.1"
   id="svg6"
   sodipodi:docname="lambda-97846.svg"
   width="232.15764"
   height="340.16553"
   inkscape:version="0.92.1 r15371">
  <metadata
     id="metadata12">
    <rdf:RDF>
      <cc:Work
         rdf:about="">
        <dc:format>image/svg+xml</dc:format>
        <dc:type
           rdf:resource="http://purl.org/dc/dcmitype/StillImage" />
        <dc:title></dc:title>
      </cc:Work>
    </rdf:RDF>
  </metadata>
  <defs
     id="defs10" />
  <sodipodi:namedview
     pagecolor="#ffffff"
     bordercolor="#666666"
     borderopacity="1"
     objecttolerance="10"
     gridtolerance="10"
     guidetolerance="10"
     inkscape:pageopacity="0"
     inkscape:pageshadow="2"
     inkscape:window-width="1920"
     inkscape:window-height="1018"
     id="namedview8"
     showgrid="false"
     fit-margin-top="0"
     fit-margin-left="0"
     fit-margin-right="0"
     fit-margin-bottom="0"
     inkscape:zoom="0.62933333"
     inkscape:cx="116.0805"
     inkscape:cy="170.08332"
     inkscape:window-x="-8"
     inkscape:window-y="-8"
     inkscape:window-maximized="1"
     inkscape:current-layer="svg6" />
  <g
     transform="matrix(0.23738,0,0,-0.23738,-5.9345,336.84222)"
     id="g4"
     style="fill:#e91e63;fill-opacity:1">
    <path
       d="m 967,288 h 36 C 1003,182.67 986,106 952,58 918,10 875,-14 823,-14 781,-14 740.667,1.667 702,33 663.333,64.333 628.667,149.33 598,288 L 512,676 214,0 H 25 l 428,922 c -22.667,119.33 -50,207.67 -82,265 -32,57.33 -71.667,86 -119,86 -38,0 -71,-14.333 -99,-43 -28,-28.667 -44,-73.667 -48,-135 H 69 c 2,98 21.667,176.33 59,235 37.333,58.67 84,88.333 140,89 36,0 70,-14.667 102,-44 32,-29.333 60,-80 84,-152 24,-72 61,-220.67 111,-446 l 71,-317 c 28.667,-131.33 58.667,-219 90,-263 31.333,-44 69.333,-66.333 114,-67 74.667,0 117,52.667 127,158 z"
       id="path2"
       style="fill:#e91e63;fill-opacity:1"
       inkscape:connector-curvature="0" />
  </g>
</svg>
