<?xml version="1.0" encoding="UTF-8" standalone="no"?>
<svg
   xmlns:dc="http://purl.org/dc/elements/1.1/"
   xmlns:cc="http://creativecommons.org/ns#"
   xmlns:rdf="http://www.w3.org/1999/02/22-rdf-syntax-ns#"
   xmlns:svg="http://www.w3.org/2000/svg"
   xmlns="http://www.w3.org/2000/svg"
   xmlns:sodipodi="http://sodipodi.sourceforge.net/DTD/sodipodi-0.dtd"
   xmlns:inkscape="http://www.inkscape.org/namespaces/inkscape"
   width="180.68788mm"
   height="182.58134mm"
   version="1.1"
   viewBox="0 0 640.21858 646.92998"
   id="svg66"
   sodipodi:docname="phone-1537916.svg"
   inkscape:version="0.92.1 r15371">
  <metadata
     id="metadata72">
    <rdf:RDF>
      <cc:Work
         rdf:about="">
        <dc:format>image/svg+xml</dc:format>
        <dc:type
           rdf:resource="http://purl.org/dc/dcmitype/StillImage" />
        <dc:title></dc:title>
      </cc:Work>
    </rdf:RDF>
  </metadata>
  <defs
     id="defs70" />
  <sodipodi:namedview
     pagecolor="#ffffff"
     bordercolor="#666666"
     borderopacity="1"
     objecttolerance="10"
     gridtolerance="10"
     guidetolerance="10"
     inkscape:pageopacity="0"
     inkscape:pageshadow="2"
     inkscape:window-width="1920"
     inkscape:window-height="1018"
     id="namedview68"
     showgrid="false"
     fit-margin-top="0"
     fit-margin-left="0"
     fit-margin-right="0"
     fit-margin-bottom="0"
     inkscape:zoom="0.29586196"
     inkscape:cx="-284.46069"
     inkscape:cy="349.80289"
     inkscape:window-x="-8"
     inkscape:window-y="-8"
     inkscape:window-maximized="1"
     inkscape:current-layer="g62" />
  <g
     transform="translate(-55.370374,-59.41)"
     id="g64">
    <g
       id="g62"
       style="fill-rule:evenodd">
      <rect
         x="55.368999"
         y="59.41"
         width="166.53999"
         height="298.10001"
         rx="7.6469998"
         ry="16.370001"
         id="rect4"
         style="fill:#ffffff" />
      <rect
         x="60.512001"
         y="83.794998"
         width="156.85001"
         height="252.46001"
         id="rect6"
         style="fill:#4fc3f7" />
      <rect
         x="104.06"
         y="66.728996"
         width="8.8655996"
         height="8.7665005"
         ry="4.3832998"
         id="rect8"
         style="fill:#4fc3f7" />
      <rect
         x="120.5"
         y="69.198997"
         width="48.613998"
         height="5.5535998"
         ry="1.1569999"
         id="rect10"
         style="fill:#4fc3f7" />
      <rect
         x="288.29999"
         y="59.41"
         width="166.53999"
         height="298.10001"
         ry="18.327"
         id="rect12"
         style="fill:#ffffff" />
      <rect
         x="293.44"
         y="83.794998"
         width="156.85001"
         height="243.77"
         id="rect14"
         style="fill:#ffaaaa" />
      <rect
         x="347.26001"
         y="69.257004"
         width="48.613998"
         height="5.4947"
         ry="1.1447001"
         id="rect16"
         style="fill:#ffaaaa" />
      <rect
         x="527.88"
         y="59.41"
         width="166.53999"
         height="298.10001"
         ry="13.663"
         id="rect18"
         style="fill:#ffffff" />
      <rect
         x="533.02002"
         y="86.707001"
         width="156.85001"
         height="238.37"
         id="rect20"
         style="fill:#cccccc" />
      <rect
         x="579.07001"
         y="68.704002"
         width="4.7164001"
         height="4.6637001"
         ry="2.0590999"
         id="rect22"
         style="fill:#b0bec5" />
      <rect
         x="593.08002"
         y="69.113998"
         width="35.720001"
         height="4.0788999"
         ry="0.84978002"
         id="rect24"
         style="fill:#b0bec5" />
      <rect
         x="55.632"
         y="408.23999"
         width="166.53999"
         height="298.10001"
         ry="6.8569002"
         id="rect26"
         style="fill:#212121" />
      <rect
         x="60.773998"
         y="432.63"
         width="156.85001"
         height="252.46001"
         id="rect28"
         style="fill:#cddc39" />
      <rect
         x="113.76"
         y="415.17999"
         width="10.758"
         height="10.638"
         ry="5.3189998"
         id="rect30"
         style="fill:#cddc39" />
      <rect
         x="120.76"
         y="418.34"
         width="48.613998"
         height="4.73"
         ry="0.98541999"
         id="rect32"
         style="fill:#cddc39" />
      <path
         d="m 611.15,331.44 a 11.023,11.023 0 0 0 -11.023,11.023 11.023,11.023 0 0 0 11.023,11.023 11.023,11.023 0 0 0 11.023,-11.023 11.023,11.023 0 0 0 -11.023,-11.023 z m 0,3.1209 a 7.9029,7.9029 0 0 1 7.9023,7.9023 7.9029,7.9029 0 0 1 -7.9023,7.9023 7.9029,7.9029 0 0 1 -7.9023,-7.9023 7.9029,7.9029 0 0 1 7.9023,-7.9023 z"
         id="path34"
         inkscape:connector-curvature="0"
         style="fill:#cccccc" />
      <path
         d="m 353.31,333.29 c -1.556,0 -2.8092,1.5326 -2.8092,3.4355 v 10.877 c 0,1.9029 1.2532,3.4355 2.8092,3.4355 h 36.522 c 1.5561,0 2.8092,-1.5326 2.8092,-3.4355 v -10.877 c 0,-1.9029 -1.2532,-3.4355 -2.8092,-3.4355 z m 1.242,2.9197 34.038,0.0735 c 1.1214,0.002 2.0245,0.5897 2.0245,1.9611 v 7.8391 c 0,1.3714 -0.90308,1.9587 -2.0245,1.9611 l -34.038,0.0735 c -1.1214,0.002 -2.0245,-0.66324 -2.0245,-2.0346 v -7.8391 c 0,-1.3714 0.90309,-2.037 2.0245,-2.0346 z"
         id="path36"
         inkscape:connector-curvature="0"
         style="fill:#ffaaaa" />
      <rect
         x="400.44"
         y="69.084"
         width="5.6704998"
         height="5.6071"
         ry="2.3118999"
         id="rect38"
         style="fill:#ffaaaa" />
      <rect
         x="836.42999"
         y="470.92999"
         width="1.0714"
         height="0"
         ry="0"
         id="rect40"
         style="fill:#039be5" />
      <rect
         x="288.20999"
         y="408.23999"
         width="166.53999"
         height="298.10001"
         rx="83.268997"
         ry="11.016"
         id="rect42"
         style="fill:#212121" />
      <rect
         x="293.35001"
         y="435.95999"
         width="156.85001"
         height="240.78999"
         id="rect44"
         style="fill:#ff6f00" />
      <rect
         x="303.73999"
         y="422.51001"
         width="7.4751"
         height="7.3916001"
         ry="3.6958001"
         id="rect46"
         style="fill:#ff6f00" />
      <rect
         x="529.04999"
         y="408.23999"
         width="166.53999"
         height="298.10001"
         rx="0"
         ry="0"
         id="rect48"
         style="fill:#212121" />
      <rect
         x="534.19"
         y="435.95999"
         width="156.85001"
         height="240.78999"
         id="rect50"
         style="fill:#ffeb3b" />
      <rect
         x="676.34998"
         y="416.70999"
         width="9.2112999"
         height="9.1084003"
         ry="4.5542002"
         id="rect52"
         style="fill:#ffeb3b" />
      <rect
         x="589.78998"
         y="420.31"
         width="45.042999"
         height="4.73"
         ry="0.98541999"
         id="rect54"
         style="fill:#ffeb3b" />
      <path
         d="m 366.31,685.34 c -1.6839,0 -3.041,1.1047 -3.041,2.4775 v 8.4371 c 0,1.3728 1.3571,2.4775 3.041,2.4775 h 10.348 c 1.6839,0 3.041,-1.1047 3.041,-2.4775 v -8.4371 c 0,-1.3728 -1.3571,-2.4775 -3.041,-2.4775 z m 0.92578,1.7291 h 8.4961 c 1.0214,0 1.8438,0.67039 1.8438,1.503 v 6.9277 c 0,0.83265 -0.82236,1.503 -1.8438,1.503 h -8.4961 c -1.0214,0 -1.8438,-0.6704 -1.8438,-1.503 v -6.9277 c 0,-0.83265 0.82236,-1.503 1.8438,-1.503 z"
         id="path56"
         inkscape:connector-curvature="0"
         style="fill:#ff6f00" />
      <path
         d="m 605.69,685.21 c -0.29874,0 -0.53905,0.24071 -0.53905,0.53946 v 5.3656 h 5.9047 v -5.9051 h -5.3656 z m 7.8966,0 v 5.9051 h 5.9047 v -5.3656 c 0,-0.29875 -0.2403,-0.53946 -0.53905,-0.53946 h -5.3656 z m -8.4356,8.4356 v 5.3656 c 0,0.29875 0.24031,0.53946 0.53905,0.53946 h 5.3656 v -5.9051 h -5.9047 z m 8.4356,0 v 5.9051 h 5.3656 c 0.29875,0 0.53905,-0.24071 0.53905,-0.53946 v -5.3656 h -5.9047 z"
         id="path58"
         inkscape:connector-curvature="0"
         style="fill:#ffeb3b" />
      <path
         d="m 343,414.63 c 19.368,-0.9602 38.31,-0.64514 56.964,0.53571 l -1.9643,2.8572 -26.786,2.1428 -26.964,-2.6786 z"
         id="path60"
         inkscape:connector-curvature="0"
         style="fill:#ff6f00" />
    </g>
  </g>
</svg>
