<?xml version="1.0" encoding="UTF-8" standalone="no"?>
<!-- Created with Inkscape (http://www.inkscape.org/) -->

<svg
   xmlns:dc="http://purl.org/dc/elements/1.1/"
   xmlns:cc="http://creativecommons.org/ns#"
   xmlns:rdf="http://www.w3.org/1999/02/22-rdf-syntax-ns#"
   xmlns:svg="http://www.w3.org/2000/svg"
   xmlns="http://www.w3.org/2000/svg"
   xmlns:sodipodi="http://sodipodi.sourceforge.net/DTD/sodipodi-0.dtd"
   xmlns:inkscape="http://www.inkscape.org/namespaces/inkscape"
   width="522.0835mm"
   height="634.7793mm"
   viewBox="0 0 522.0835 634.7793"
   version="1.1"
   id="svg8"
   inkscape:version="0.92.1 r15371"
   sodipodi:docname="support.svg">
  <defs
     id="defs2">
    <clipPath
       id="clipPath4501"
       clipPathUnits="userSpaceOnUse">
      <path
         inkscape:connector-curvature="0"
         id="path4499"
         d="M 0,1920 H 1920 V 0 H 0 Z" />
    </clipPath>
  </defs>
  <sodipodi:namedview
     id="base"
     pagecolor="#ffffff"
     bordercolor="#666666"
     borderopacity="1.0"
     inkscape:pageopacity="0.0"
     inkscape:pageshadow="2"
     inkscape:zoom="0.175"
     inkscape:cx="-941.83501"
     inkscape:cy="2117.1429"
     inkscape:document-units="mm"
     inkscape:current-layer="g4503"
     showgrid="false"
     fit-margin-top="0"
     fit-margin-left="0"
     fit-margin-right="0"
     fit-margin-bottom="0"
     inkscape:window-width="1920"
     inkscape:window-height="1018"
     inkscape:window-x="-8"
     inkscape:window-y="-8"
     inkscape:window-maximized="1" />
  <metadata
     id="metadata5">
    <rdf:RDF>
      <cc:Work
         rdf:about="">
        <dc:format>image/svg+xml</dc:format>
        <dc:type
           rdf:resource="http://purl.org/dc/dcmitype/StillImage" />
        <dc:title></dc:title>
      </cc:Work>
    </rdf:RDF>
  </metadata>
  <g
     inkscape:label="Camada 1"
     inkscape:groupmode="layer"
     id="layer1"
     transform="translate(-46.409129,-31.763372)">
    <g
       transform="matrix(0.35277777,0,0,-0.35277777,36.745649,666.54266)"
       inkscape:label="workers-2246769"
       id="g4493">
      <g
         id="g4495">
        <g
           clip-path="url(#clipPath4501)"
           id="g4497">
          <g
             transform="translate(1920,999.9189)"
             id="g4503" />
          <g
             transform="translate(1507.0283)"
             id="g4507">
            <path
               inkscape:connector-curvature="0"
               id="path4509"
               style="fill:#69c4a7;fill-opacity:1;fill-rule:nonzero;stroke:none"
               d="m 0,0 c 0.088,3.775 0.286,7.523 0.286,11.32 0,265.701 -215.392,481.093 -481.094,481.093 -265.7,0 -481.093,-215.392 -481.093,-481.093 0,-3.797 0.199,-7.545 0.286,-11.32 z" />
          </g>
          <g
             transform="translate(1115.8262,362.2344)"
             id="g4511">
            <path
               inkscape:connector-curvature="0"
               id="path4513"
               style="fill:#b28c87;fill-opacity:1;fill-rule:nonzero;stroke:none"
               d="m 0,0 h -175.437 c -4.675,0 -8.5,3.825 -8.5,8.5 v 322.596 c 0,4.675 3.825,8.5 8.5,8.5 H 0 c 4.675,0 8.5,-3.825 8.5,-8.5 V 8.5 C 8.5,3.825 4.675,0 0,0" />
          </g>
          <g
             transform="translate(693.73,358.9326)"
             id="g4515">
            <path
               inkscape:connector-curvature="0"
               id="path4517"
               style="fill:#ffc609;fill-opacity:1;fill-rule:nonzero;stroke:none"
               d="m 0,0 -18.424,-358.933 h 245.263 l 11.32,483.832 -54.745,-14.971 c 0,0 -23.608,-8.368 -111.461,-53.088 z" />
          </g>
          <g
             transform="translate(1362.4854,358.9326)"
             id="g4519">
            <path
               inkscape:connector-curvature="0"
               id="path4521"
               style="fill:#ffc609;fill-opacity:1;fill-rule:nonzero;stroke:none"
               d="m 0,0 18.425,-358.933 h -245.264 l -11.32,483.832 54.745,-14.971 c 0,0 23.608,-8.368 111.461,-53.088 z" />
          </g>
          <path
             inkscape:connector-curvature="0"
             id="path4523"
             style="fill:#ffed00;fill-opacity:1;fill-rule:nonzero;stroke:none"
             d="M 925.492,210.41 H 689.358 v 63.362 h 236.134 z" />
          <path
             inkscape:connector-curvature="0"
             id="path4525"
             style="fill:#ffed00;fill-opacity:1;fill-rule:nonzero;stroke:none"
             d="m 1368.492,210.234 h -233.941 v 63.362 h 233.941 z" />
          <g
             transform="translate(879.5347,52.4482)"
             id="g4527">
            <path
               inkscape:connector-curvature="0"
               id="path4529"
               style="fill:#b68c2d;fill-opacity:1;fill-rule:nonzero;stroke:none"
               d="M 0,0 C 5.932,-0.053 11.029,5.468 10.481,11.305 10.241,17.41 10.16,23.516 9.748,29.621 L 7.595,66.253 C 6.821,78.464 6.131,90.674 5.87,102.885 l -0.131,4.579 c -0.039,1.689 -0.138,1.79 -0.402,2.697 -0.509,1.413 -1.659,2.626 -3.021,3.215 -0.679,0.299 -1.399,0.452 -2.136,0.456 l -4.386,-0.044 -9.158,-0.117 c -48.843,0.026 -97.686,0.79 -146.529,2.937 -4.503,0.322 -8.974,-3.642 -8.884,-8.771 -0.27,-6.106 -0.403,-12.211 -0.445,-18.316 -0.181,-12.211 -0.381,-24.421 -0.155,-36.632 0.186,-12.211 0.731,-24.421 1.315,-36.632 0.232,-3.08 0.014,-6.374 0.82,-7.955 0.785,-1.935 2.396,-3.488 4.247,-4.203 0.925,-0.364 1.9,-0.527 2.867,-0.491 l 4.441,0.182 9.159,0.356 c 24.421,0.684 48.842,0.411 73.264,-1.16 C -48.843,1.64 -24.421,-0.179 0,0 m 0,-1.132 c -24.421,0.179 -48.843,-1.639 -73.264,-2.986 -24.422,-1.57 -48.843,-1.844 -73.264,-1.158 l -9.159,0.354 -4.715,0.22 c -2.082,0.132 -4.135,0.698 -5.968,1.639 -3.68,1.874 -6.465,5.227 -7.619,9.089 -1.178,4.28 -0.317,7.253 -0.374,10.231 0.584,12.211 1.13,24.421 1.316,36.632 0.225,12.211 0.026,24.421 -0.156,36.632 -0.042,6.105 -0.175,12.21 -0.445,18.316 -0.746,7.306 5.745,14.976 13.755,14.97 48.843,2.147 97.686,2.911 146.529,2.937 l 9.158,-0.118 4.771,-0.08 c 2.313,-0.092 4.62,-0.67 6.699,-1.675 4.17,-2 7.415,-5.693 8.845,-10.077 0.759,-1.984 0.894,-4.974 0.792,-6.33 L 16.77,102.885 C 16.509,90.674 15.818,78.464 15.045,66.253 L 12.893,29.621 C 12.48,23.516 12.399,17.41 12.159,11.305 12.446,4.706 6.583,-1.406 0,-1.132" />
          </g>
          <g
             transform="translate(1331.4678,52.4482)"
             id="g4531">
            <path
               inkscape:connector-curvature="0"
               id="path4533"
               style="fill:#b68c2d;fill-opacity:1;fill-rule:nonzero;stroke:none"
               d="M 0,0 C 5.932,-0.053 11.029,5.468 10.481,11.305 10.24,17.41 10.16,23.516 9.748,29.621 L 7.595,66.253 C 6.821,78.464 6.132,90.674 5.87,102.885 l -0.131,4.579 c -0.039,1.689 -0.137,1.79 -0.401,2.697 -0.51,1.413 -1.659,2.626 -3.022,3.215 -0.679,0.299 -1.399,0.452 -2.136,0.456 l -4.386,-0.044 -9.158,-0.117 c -48.843,0.026 -97.686,0.79 -146.529,2.937 -4.503,0.322 -8.973,-3.642 -8.883,-8.771 -0.271,-6.106 -0.404,-12.211 -0.446,-18.316 -0.181,-12.211 -0.381,-24.421 -0.155,-36.632 0.186,-12.211 0.731,-24.421 1.315,-36.632 0.232,-3.08 0.014,-6.374 0.821,-7.955 0.784,-1.935 2.394,-3.488 4.247,-4.203 0.925,-0.364 1.898,-0.527 2.866,-0.491 l 4.441,0.182 9.159,0.356 c 24.422,0.684 48.842,0.411 73.264,-1.16 C -48.843,1.64 -24.421,-0.179 0,0 m 0,-1.132 c -24.421,0.179 -48.843,-1.639 -73.264,-2.986 -24.422,-1.57 -48.842,-1.844 -73.264,-1.158 l -9.159,0.354 -4.714,0.22 c -2.082,0.132 -4.135,0.698 -5.969,1.639 -3.68,1.874 -6.465,5.227 -7.619,9.089 -1.177,4.28 -0.317,7.253 -0.374,10.231 0.584,12.211 1.13,24.421 1.316,36.632 0.225,12.211 0.026,24.421 -0.156,36.632 -0.041,6.105 -0.175,12.21 -0.444,18.316 -0.747,7.306 5.745,14.976 13.754,14.97 48.843,2.147 97.686,2.911 146.529,2.937 l 9.158,-0.118 4.771,-0.08 c 2.313,-0.092 4.62,-0.67 6.699,-1.675 4.17,-2 7.416,-5.693 8.844,-10.077 0.76,-1.984 0.895,-4.974 0.793,-6.33 l -0.13,-4.579 C 16.509,90.674 15.818,78.464 15.045,66.253 L 12.893,29.621 C 12.48,23.516 12.399,17.41 12.159,11.305 12.446,4.706 6.583,-1.406 0,-1.132" />
          </g>
          <g
             transform="translate(1125.0449,560.332)"
             id="g4535">
            <path
               inkscape:connector-curvature="0"
               id="path4537"
               style="fill:#bf9790;fill-opacity:1;fill-rule:nonzero;stroke:none"
               d="m 0,0 h -197.647 c -102.333,0 -186.06,83.727 -186.06,186.059 v 657.987 c 0,102.333 83.727,186.059 186.06,186.059 H 0 c 102.332,0 186.059,-83.726 186.059,-186.059 V 186.059 C 186.059,83.727 102.332,0 0,0" />
          </g>
          <g
             transform="translate(708.3223,1328.5708)"
             id="g4539">
            <path
               inkscape:connector-curvature="0"
               id="path4541"
               style="fill:#8e6e69;fill-opacity:1;fill-rule:nonzero;stroke:none"
               d="m 0,0 c 0,0 -4.717,-194.7 40.563,-253.186 0,0 13.206,171.684 18.866,201.87 L 349.86,60.659 C 349.86,60.659 149.988,87.162 0,0" />
          </g>
          <g
             transform="translate(1340.7734,1328.5708)"
             id="g4543">
            <path
               inkscape:connector-curvature="0"
               id="path4545"
               style="fill:#8e6e69;fill-opacity:1;fill-rule:nonzero;stroke:none"
               d="m 0,0 c 0,0 4.717,-194.7 -40.563,-253.186 0,0 -13.207,171.684 -18.866,201.87 L -349.86,60.659 c 0,0 199.872,26.503 349.86,-60.659" />
          </g>
          <g
             transform="translate(1017.7314,856.5342)"
             id="g4547">
            <path
               inkscape:connector-curvature="0"
               id="path4549"
               style="fill:#af857e;fill-opacity:1;fill-rule:nonzero;stroke:none"
               d="m 0,0 v 0 c -14.009,0 -25.47,11.462 -25.47,25.47 v 147.158 c 0,14.008 11.461,25.469 25.47,25.469 14.008,0 25.47,-11.461 25.47,-25.469 V 25.47 C 25.47,11.462 14.008,0 0,0" />
          </g>
          <g
             transform="translate(1401.6621,1065.9512)"
             id="g4551">
            <path
               inkscape:connector-curvature="0"
               id="path4553"
               style="fill:#bf9790;fill-opacity:1;fill-rule:nonzero;stroke:none"
               d="m 0,0 c 0,-50.014 -40.544,-90.559 -90.559,-90.559 -50.013,0 -90.558,40.545 -90.558,90.559 0,50.015 40.545,90.559 90.558,90.559 C -40.544,90.559 0,50.015 0,0" />
          </g>
          <g
             transform="translate(831.897,1065.9512)"
             id="g4555">
            <path
               inkscape:connector-curvature="0"
               id="path4557"
               style="fill:#bf9790;fill-opacity:1;fill-rule:nonzero;stroke:none"
               d="m 0,0 c 0,-50.014 -40.544,-90.559 -90.559,-90.559 -50.014,0 -90.558,40.545 -90.558,90.559 0,50.015 40.544,90.559 90.558,90.559 C -40.544,90.559 0,50.015 0,0" />
          </g>
          <g
             transform="translate(741.3389,1131.9839)"
             id="g4559">
            <path
               inkscape:connector-curvature="0"
               id="path4561"
               style="fill:#af857e;fill-opacity:1;fill-rule:nonzero;stroke:none"
               d="m 0,0 c -36.469,0 -66.033,-29.564 -66.033,-66.032 0,-36.469 29.564,-66.033 66.033,-66.033 z" />
          </g>
          <g
             transform="translate(1305.9121,1131.9839)"
             id="g4563">
            <path
               inkscape:connector-curvature="0"
               id="path4565"
               style="fill:#af857e;fill-opacity:1;fill-rule:nonzero;stroke:none"
               d="m 0,0 c 36.469,0 66.033,-29.564 66.033,-66.032 0,-36.469 -29.564,-66.033 -66.033,-66.033 z" />
          </g>
          <g
             transform="translate(831.897,784.8418)"
             id="g4567">
            <path
               inkscape:connector-curvature="0"
               id="path4569"
               style="fill:#8e6e69;fill-opacity:1;fill-rule:nonzero;stroke:none"
               d="m 0,0 h 377.329 c 0,0 0,-150.931 -191.495,-150.931 C 185.834,-150.931 0,-164.138 0,0" />
          </g>
          <g
             transform="translate(930.5283,1218.0674)"
             id="g4571">
            <path
               inkscape:connector-curvature="0"
               id="path4573"
               style="fill:#8e6e69;fill-opacity:1;fill-rule:nonzero;stroke:none"
               d="m 0,0 -115.418,-24.121 c -0.763,-0.159 -1.517,0.334 -1.676,1.097 l -5.982,28.621 c -0.159,0.763 0.334,1.517 1.097,1.677 L -6.561,31.395 c 0.763,0.159 1.517,-0.334 1.677,-1.097 L 1.097,1.677 C 1.256,0.914 0.763,0.16 0,0" />
          </g>
          <g
             transform="translate(1207.708,1183.0947)"
             id="g4575">
            <path
               inkscape:connector-curvature="0"
               id="path4577"
               style="fill:#8e6e69;fill-opacity:1;fill-rule:nonzero;stroke:none"
               d="m 0,0 -107.738,47.914 c -0.712,0.316 -1.035,1.158 -0.719,1.87 L -96.575,76.5 c 0.316,0.712 1.158,1.036 1.87,0.719 L 13.032,29.306 c 0.712,-0.317 1.035,-1.159 0.719,-1.87 L 1.87,0.719 C 1.553,0.007 0.712,-0.316 0,0" />
          </g>
          <g
             transform="translate(880.4844,1753.2515)"
             id="g4579">
            <path
               inkscape:connector-curvature="0"
               id="path4581"
               style="fill:#e19925;fill-opacity:1;fill-rule:nonzero;stroke:none"
               d="m 0,0 -41.757,-47.197 c 0,0 -156.028,-76.48 -145.572,-311.08 l -26.333,-31.793 c 0,0 33.96,-64.138 113.199,-64.138 79.238,0 304.22,1.415 336.765,0 32.545,-1.416 155.647,0 155.647,0 0,0 89.145,60.357 94.804,64.138 l 5.66,3.78 -24.93,28.013 c 0,0 -123.636,304.918 -145.572,311.08 l -21.815,42.253 z" />
          </g>
          <g
             transform="translate(1350.9678,1377.0308)"
             id="g4583">
            <path
               inkscape:connector-curvature="0"
               id="path4585"
               style="fill:#ffc609;fill-opacity:1;fill-rule:nonzero;stroke:none"
               d="m 0,0 c -22.789,-22.407 -36.283,-55.822 -78.48,-43.375 -10.188,3.005 -86.023,33.374 -251.926,29.053 -165.904,4.321 -241.74,-26.048 -251.926,-29.053 -42.198,-12.447 -55.692,20.968 -78.48,43.375 -22.788,22.408 -39.002,-6.437 -38.004,-14.322 0.999,-7.885 33.41,-49.601 63.723,-69.944 30.314,-20.343 227.797,-41.922 304.687,-41.922 76.888,0 274.373,21.579 304.686,41.922 30.314,20.343 62.725,62.059 63.723,69.944 C 39.002,-6.437 22.788,22.408 0,0" />
          </g>
          <g
             transform="translate(754.1851,1342.1934)"
             id="g4587">
            <path
               inkscape:connector-curvature="0"
               id="path4589"
               style="fill:#ffc609;fill-opacity:1;fill-rule:nonzero;stroke:none"
               d="M 0,0 C 0,0 145.917,51.883 266.376,34.124 386.836,51.883 532.753,0 532.753,0 c 9.887,-3.262 61.03,52.781 61.03,52.781 C 619.205,282.749 448.21,363.861 448.21,363.861 388.434,316.276 357.495,114.38 357.495,114.38 c -35.409,76.49 68.9,291.734 68.9,291.734 -41.975,42.778 -160.019,51.067 -160.019,51.067 0,0 -118.043,-8.289 -160.018,-51.067 0,0 104.308,-215.244 68.9,-291.734 0,0 -30.939,201.896 -90.716,249.481 0,0 -170.994,-81.112 -145.571,-311.08 0,0 51.141,-56.043 61.029,-52.781" />
          </g>
          <g
             transform="translate(931.8892,1107.5088)"
             id="g4591">
            <path
               inkscape:connector-curvature="0"
               id="path4593"
               style="fill:#ffffff;fill-opacity:1;fill-rule:nonzero;stroke:none"
               d="m 0,0 c 0,-33.886 -27.47,-61.356 -61.356,-61.356 -33.886,0 -61.356,27.47 -61.356,61.356 0,33.886 27.47,61.356 61.356,61.356 C -27.47,61.356 0,33.886 0,0" />
          </g>
          <g
             transform="translate(832.8647,1105.3022)"
             id="g4595">
            <path
               inkscape:connector-curvature="0"
               id="path4597"
               style="fill:#8e6e69;fill-opacity:1;fill-rule:nonzero;stroke:none"
               d="M 0,0 C -1.218,20.804 14.659,38.656 35.462,39.875 56.266,41.093 74.118,25.216 75.336,4.413 76.555,-16.391 60.678,-34.243 39.875,-35.462 19.071,-36.68 1.219,-20.804 0,0" />
          </g>
          <g
             transform="translate(1200.7197,1107.5088)"
             id="g4599">
            <path
               inkscape:connector-curvature="0"
               id="path4601"
               style="fill:#ffffff;fill-opacity:1;fill-rule:nonzero;stroke:none"
               d="m 0,0 c 0,-33.886 -27.47,-61.356 -61.355,-61.356 -33.886,0 -61.357,27.47 -61.357,61.356 0,33.886 27.471,61.356 61.357,61.356 C -27.47,61.356 0,33.886 0,0" />
          </g>
          <g
             transform="translate(1101.6953,1105.3022)"
             id="g4603">
            <path
               inkscape:connector-curvature="0"
               id="path4605"
               style="fill:#8e6e69;fill-opacity:1;fill-rule:nonzero;stroke:none"
               d="M 0,0 C -1.218,20.804 14.659,38.656 35.463,39.875 56.266,41.093 74.118,25.216 75.337,4.413 76.556,-16.391 60.679,-34.243 39.875,-35.462 19.071,-36.68 1.219,-20.804 0,0" />
          </g>
          <g
             transform="translate(890.8545,664.8545)"
             id="g4607">
            <path
               inkscape:connector-curvature="0"
               id="path4609"
               style="fill:#e27434;fill-opacity:1;fill-rule:nonzero;stroke:none"
               d="m 0,0 c 0,0 79.118,130.204 306.007,66.655 0,0 -9.252,-90.615 -179.13,-97.598 0,0 -93.833,-0.503 -126.877,30.943" />
          </g>
          <g
             transform="translate(913.124,1131.9839)"
             id="g4611">
            <path
               inkscape:connector-curvature="0"
               id="path4613"
               style="fill:#ffffff;fill-opacity:1;fill-rule:nonzero;stroke:none"
               d="m 0,0 c 0,-12.299 -9.97,-22.269 -22.27,-22.269 -12.298,0 -22.269,9.97 -22.269,22.269 0,12.299 9.971,22.269 22.269,22.269 C -9.97,22.269 0,12.299 0,0" />
          </g>
          <g
             transform="translate(1182.5244,1131.9839)"
             id="g4615">
            <path
               inkscape:connector-curvature="0"
               id="path4617"
               style="fill:#ffffff;fill-opacity:1;fill-rule:nonzero;stroke:none"
               d="m 0,0 c 0,-12.299 -9.97,-22.269 -22.269,-22.269 -12.298,0 -22.269,9.97 -22.269,22.269 0,12.299 9.971,22.269 22.269,22.269 C -9.97,22.269 0,12.299 0,0" />
          </g>
          <g
             transform="translate(447.9937,796.0068)"
             id="g4619">
            <path
               inkscape:connector-curvature="0"
               id="path4621"
               style="fill:#9a9a9b;fill-opacity:1;fill-rule:nonzero;stroke:none"
               d="m 0,0 c -1.301,0.332 -59.364,-44.42 -108.979,18.117 0,0 -24.897,12.82 -10.18,70.483 0,0 7.729,4.954 -54.681,91.538 -62.41,86.583 -100.78,140.709 -100.78,140.709 0,0 -58.733,17.761 -69.027,20.85 -10.295,3.089 -80.098,20.905 -48.53,106.593 0,0 47.943,-49.181 63.947,-38.949 16.003,10.231 34.681,34.557 31.036,43.8 -3.644,9.242 -51.2,49.088 -51.2,49.088 0,0 61.478,32.798 107.308,-4.76 45.83,-37.558 24.038,-99.418 24.038,-99.418 0,0 -9.048,-8.312 10.898,-35.107 19.945,-26.796 147.487,-198.349 147.487,-198.349 0,0 15.129,-13.097 51.031,-17.18 35.902,-4.084 69.325,-48.635 45.965,-98.55 0,0 -46.375,37.236 -52.011,38.674 -5.636,1.439 -36.564,-20.224 -35.261,-42.261 z" />
          </g>
          <g
             transform="translate(427.7021,789.2979)"
             id="g4623">
            <path
               inkscape:connector-curvature="0"
               id="path4625"
               style="fill:#b3b3b4;fill-opacity:1;fill-rule:nonzero;stroke:none"
               d="m 0,0 c -1.301,0.332 -59.364,-44.42 -108.979,18.117 0,0 -24.897,12.82 -10.18,70.483 0,0 7.729,4.954 -54.681,91.538 -62.41,86.583 -100.78,140.709 -100.78,140.709 0,0 -58.733,17.761 -69.027,20.85 -10.295,3.089 -80.098,20.905 -48.53,106.593 0,0 47.943,-49.181 63.947,-38.949 16.003,10.231 34.68,34.557 31.036,43.8 -3.644,9.242 -51.2,49.088 -51.2,49.088 0,0 61.478,32.798 107.308,-4.76 45.83,-37.558 24.038,-99.418 24.038,-99.418 0,0 -9.048,-8.312 10.897,-35.108 19.946,-26.795 147.488,-198.348 147.488,-198.348 0,0 15.129,-13.097 51.031,-17.18 35.902,-4.084 69.325,-48.635 45.964,-98.55 0,0 -46.374,37.235 -52.01,38.674 -5.636,1.439 -36.564,-20.224 -35.261,-42.261 z" />
          </g>
        </g>
      </g>
    </g>
  </g>
</svg>
