<?xml version="1.0" encoding="UTF-8" standalone="no"?>
<svg
   xmlns:dc="http://purl.org/dc/elements/1.1/"
   xmlns:cc="http://creativecommons.org/ns#"
   xmlns:rdf="http://www.w3.org/1999/02/22-rdf-syntax-ns#"
   xmlns:svg="http://www.w3.org/2000/svg"
   xmlns="http://www.w3.org/2000/svg"
   xmlns:sodipodi="http://sodipodi.sourceforge.net/DTD/sodipodi-0.dtd"
   xmlns:inkscape="http://www.inkscape.org/namespaces/inkscape"
   viewBox="0 0 84.674042 65.902206"
   version="1.1"
   id="svg831"
   sodipodi:docname="checked.svg"
   width="84.674042"
   height="65.902206"
   inkscape:version="0.92.2 (5c3e80d, 2017-08-06)">
  <metadata
     id="metadata837">
    <rdf:RDF>
      <cc:Work
         rdf:about="">
        <dc:format>image/svg+xml</dc:format>
        <dc:type
           rdf:resource="http://purl.org/dc/dcmitype/StillImage" />
        <dc:title></dc:title>
      </cc:Work>
    </rdf:RDF>
  </metadata>
  <defs
     id="defs835" />
  <sodipodi:namedview
     pagecolor="#ffffff"
     bordercolor="#666666"
     borderopacity="1"
     objecttolerance="10"
     gridtolerance="10"
     guidetolerance="10"
     inkscape:pageopacity="0"
     inkscape:pageshadow="2"
     inkscape:window-width="1920"
     inkscape:window-height="1017"
     id="namedview833"
     showgrid="false"
     fit-margin-top="0"
     fit-margin-left="0"
     fit-margin-right="0"
     fit-margin-bottom="0"
     inkscape:zoom="6.640625"
     inkscape:cx="47.572289"
     inkscape:cy="30.655912"
     inkscape:window-x="-8"
     inkscape:window-y="-8"
     inkscape:window-maximized="1"
     inkscape:current-layer="svg831" />
  <g
     transform="matrix(0.8907,0,0,0.8907,-16.427674,-28.705277)"
     id="g829"
     style="fill:#263238;fill-opacity:1">
    <path
       d="m 33.772,55.509 c -0.4167,0 -1.101,0.2515 -1.4034,0.5658 l -13.472,13.753 c -0.60451,0.6108 -0.60361,1.3626 0,1.9652 l 21.177,20.113 13.753,13.754 c 0.3054,0.305 0.70589,0.557 1.1227,0.557 0.3081,0 0.60001,-0.323 0.8416,-0.557 l 13.753,-13.473 43.506,-43.506 c 0.612,-0.60181 0.61002,-1.641 0,-2.2455 l -13.754,-13.753 c -0.61099,-0.6018 -1.362,-0.61079 -1.965,0 l -42.382,42.382 -20.054,-18.99 c -0.3027,-0.3054 -0.70601,-0.5658 -1.1227,-0.5658 h 3.97e-4 z"
       id="path827"
       style="fill:#263238;fill-opacity:1;stroke-width:0.616"
       inkscape:connector-curvature="0" />
  </g>
</svg>
