<svg xmlns="http://www.w3.org/2000/svg" width="960" height="960"><path d="M162,-305L472,-271L1005,-230Z" fill="#d4582b" stroke="#d4582b" stroke-width="1.51"/><path d="M472,-271L869,-218L1005,-230Z" fill="#a75865" stroke="#a75865" stroke-width="1.51"/><path d="M940,307L1108,553L1188,201Z" fill="#997b80" stroke="#997b80" stroke-width="1.51"/><path d="M933,1146L894,1202L1190,1129Z" fill="#c96a87" stroke="#c96a87" stroke-width="1.51"/><path d="M1144,-26L1188,201L1249,234Z" fill="#7976b2" stroke="#7976b2" stroke-width="1.51"/><path d="M1169,-138L1144,-26L1249,234Z" fill="#a4708b" stroke="#a4708b" stroke-width="1.51"/><path d="M1188,201L1108,553L1249,234Z" fill="#72939d" stroke="#72939d" stroke-width="1.51"/><path d="M1197,1000L1190,1129L1255,621Z" fill="#9786a8" stroke="#9786a8" stroke-width="1.51"/><path d="M1121,781L1197,1000L1255,621Z" fill="#7a8ab0" stroke="#7a8ab0" stroke-width="1.51"/><path d="M1249,234L1108,553L1255,621Z" fill="#a29886" stroke="#a29886" stroke-width="1.51"/><path d="M1108,553L1121,781L1255,621Z" fill="#cb8074" stroke="#cb8074" stroke-width="1.51"/><path d="M940,307L970,536L1108,553Z" fill="#be6c66" stroke="#be6c66" stroke-width="1.51"/><path d="M1108,553L995,635L1121,781Z" fill="#dc6260" stroke="#dc6260" stroke-width="1.51"/><path d="M1144,-26L1000,63L1188,201Z" fill="#a95989" stroke="#a95989" stroke-width="1.51"/><path d="M969,955L933,1146L1190,1129Z" fill="#e13f6e" stroke="#e13f6e" stroke-width="1.51"/><path d="M969,955L1190,1129L1197,1000Z" fill="#d85679" stroke="#d85679" stroke-width="1.51"/><path d="M1121,781L969,955L1197,1000Z" fill="#b9628a" stroke="#b9628a" stroke-width="1.51"/><path d="M1000,63L940,307L1188,201Z" fill="#a84f87" stroke="#a84f87" stroke-width="1.51"/><path d="M995,635L1005,767L1121,781Z" fill="#c95971" stroke="#c95971" stroke-width="1.51"/><path d="M937,-60L1144,-26L1169,-138Z" fill="#d14152" stroke="#d14152" stroke-width="1.51"/><path d="M1005,-230L937,-60L1169,-138Z" fill="#d62747" stroke="#d62747" stroke-width="1.51"/><path d="M914,1012L933,1146L969,955Z" fill="#cb4778" stroke="#cb4778" stroke-width="1.51"/><path d="M1005,767L969,955L1121,781Z" fill="#a85c8e" stroke="#a85c8e" stroke-width="1.51"/><path d="M937,-60L1000,63L1144,-26Z" fill="#c63660" stroke="#c63660" stroke-width="1.51"/><path d="M970,536L995,635L1108,553Z" fill="#ea5749" stroke="#ea5749" stroke-width="1.51"/><path d="M472,-271L585,-205L869,-218Z" fill="#d45234" stroke="#d45234" stroke-width="1.51"/><path d="M472,1160L356,1242L894,1202Z" fill="#d18e6d" stroke="#d18e6d" stroke-width="1.51"/><path d="M869,-218L891,-68L937,-60Z" fill="#b24d61" stroke="#b24d61" stroke-width="1.51"/><path d="M863,328L888,518L940,307Z" fill="#70808e" stroke="#70808e" stroke-width="1.51"/><path d="M940,307L888,518L970,536Z" fill="#a27777" stroke="#a27777" stroke-width="1.51"/><path d="M970,536L914,638L995,635Z" fill="#dc6156" stroke="#dc6156" stroke-width="1.51"/><path d="M838,136L940,307L1000,63Z" fill="#7b5da1" stroke="#7b5da1" stroke-width="1.51"/><path d="M753,789L969,955L1005,767Z" fill="#776ca6" stroke="#776ca6" stroke-width="1.51"/><path d="M914,638L753,789L1005,767Z" fill="#956f91" stroke="#956f91" stroke-width="1.51"/><path d="M995,635L914,638L1005,767Z" fill="#c5626f" stroke="#c5626f" stroke-width="1.51"/><path d="M869,-218L937,-60L1005,-230Z" fill="#bd455a" stroke="#bd455a" stroke-width="1.51"/><path d="M937,-60L891,-68L1000,63Z" fill="#b1496c" stroke="#b1496c" stroke-width="1.51"/><path d="M891,-68L838,136L1000,63Z" fill="#975387" stroke="#975387" stroke-width="1.51"/><path d="M753,789L733,921L969,955Z" fill="#6071ae" stroke="#6071ae" stroke-width="1.51"/><path d="M838,136L863,328L940,307Z" fill="#6171a1" stroke="#6171a1" stroke-width="1.51"/><path d="M733,921L914,1012L969,955Z" fill="#9d6194" stroke="#9d6194" stroke-width="1.51"/><path d="M888,518L914,638L970,536Z" fill="#cb6b60" stroke="#cb6b60" stroke-width="1.51"/><path d="M720,1098L472,1160L894,1202Z" fill="#bc7e81" stroke="#bc7e81" stroke-width="1.51"/><path d="M914,1012L720,1098L933,1146Z" fill="#a86792" stroke="#a86792" stroke-width="1.51"/><path d="M720,1098L894,1202L933,1146Z" fill="#927ba5" stroke="#927ba5" stroke-width="1.51"/><path d="M863,328L661,385L888,518Z" fill="#5f8594" stroke="#5f8594" stroke-width="1.51"/><path d="M687,26L838,136L891,-68Z" fill="#7d5f91" stroke="#7d5f91" stroke-width="1.51"/><path d="M888,518L682,624L914,638Z" fill="#b9746e" stroke="#b9746e" stroke-width="1.51"/><path d="M682,624L753,789L914,638Z" fill="#9f7683" stroke="#9f7683" stroke-width="1.51"/><path d="M733,921L720,1098L914,1012Z" fill="#a7618b" stroke="#a7618b" stroke-width="1.51"/><path d="M869,-218L687,26L891,-68Z" fill="#9a5971" stroke="#9a5971" stroke-width="1.51"/><path d="M585,-205L687,26L869,-218Z" fill="#be554e" stroke="#be554e" stroke-width="1.51"/><path d="M661,385L682,624L888,518Z" fill="#b07d68" stroke="#b07d68" stroke-width="1.51"/><path d="M838,136L661,385L863,328Z" fill="#4f7aa1" stroke="#4f7aa1" stroke-width="1.51"/><path d="M599,42L499,138L661,385Z" fill="#b56869" stroke="#b56869" stroke-width="1.51"/><path d="M687,26L599,42L838,136Z" fill="#9f5e7c" stroke="#9f5e7c" stroke-width="1.51"/><path d="M599,42L661,385L838,136Z" fill="#8b6a8c" stroke="#8b6a8c" stroke-width="1.51"/><path d="M499,138L500,296L661,385Z" fill="#a47c67" stroke="#a47c67" stroke-width="1.51"/><path d="M661,385L594,434L682,624Z" fill="#c8804a" stroke="#c8804a" stroke-width="1.51"/><path d="M594,434L557,481L682,624Z" fill="#df7b33" stroke="#df7b33" stroke-width="1.51"/><path d="M539,1062L720,1098L733,921Z" fill="#db585e" stroke="#db585e" stroke-width="1.51"/><path d="M568,908L539,1062L733,921Z" fill="#da6159" stroke="#da6159" stroke-width="1.51"/><path d="M682,624L555,771L753,789Z" fill="#bd7568" stroke="#bd7568" stroke-width="1.51"/><path d="M568,908L733,921L753,789Z" fill="#a37084" stroke="#a37084" stroke-width="1.51"/><path d="M555,771L568,908L753,789Z" fill="#ab757a" stroke="#ab757a" stroke-width="1.51"/><path d="M585,-205L599,42L687,26Z" fill="#d3533a" stroke="#d3533a" stroke-width="1.51"/><path d="M539,1062L472,1160L720,1098Z" fill="#e66d55" stroke="#e66d55" stroke-width="1.51"/><path d="M585,-205L434,-120L599,42Z" fill="#d1592d" stroke="#d1592d" stroke-width="1.51"/><path d="M557,481L401,589L682,624Z" fill="#e67b27" stroke="#e67b27" stroke-width="1.51"/><path d="M401,589L555,771L682,624Z" fill="#db7840" stroke="#db7840" stroke-width="1.51"/><path d="M500,296L594,434L661,385Z" fill="#ae8a53" stroke="#ae8a53" stroke-width="1.51"/><path d="M500,296L557,481L594,434Z" fill="#ad8a54" stroke="#ad8a54" stroke-width="1.51"/><path d="M434,-120L499,138L599,42Z" fill="#b56358" stroke="#b56358" stroke-width="1.51"/><path d="M434,-120L352,97L499,138Z" fill="#8f6d70" stroke="#8f6d70" stroke-width="1.51"/><path d="M472,-271L434,-120L585,-205Z" fill="#c36038" stroke="#c36038" stroke-width="1.51"/><path d="M233,837L299,986L555,771Z" fill="#508299" stroke="#508299" stroke-width="1.51"/><path d="M500,296L329,299L557,481Z" fill="#729173" stroke="#729173" stroke-width="1.51"/><path d="M555,771L299,986L568,908Z" fill="#9b7a7c" stroke="#9b7a7c" stroke-width="1.51"/><path d="M299,986L539,1062L568,908Z" fill="#b96f69" stroke="#b96f69" stroke-width="1.51"/><path d="M307,679L233,837L555,771Z" fill="#5d8790" stroke="#5d8790" stroke-width="1.51"/><path d="M401,589L307,679L555,771Z" fill="#a48566" stroke="#a48566" stroke-width="1.51"/><path d="M261,435L401,589L557,481Z" fill="#998e5f" stroke="#998e5f" stroke-width="1.51"/><path d="M329,299L261,435L557,481Z" fill="#54947c" stroke="#54947c" stroke-width="1.51"/><path d="M299,986L472,1160L539,1062Z" fill="#b9746c" stroke="#b9746c" stroke-width="1.51"/><path d="M292,-68L352,97L434,-120Z" fill="#886e68" stroke="#886e68" stroke-width="1.51"/><path d="M352,97L329,299L499,138Z" fill="#517896" stroke="#517896" stroke-width="1.51"/><path d="M499,138L329,299L500,296Z" fill="#6f7f83" stroke="#6f7f83" stroke-width="1.51"/><path d="M299,986L356,1242L472,1160Z" fill="#8b8a89" stroke="#8b8a89" stroke-width="1.51"/><path d="M221,-207L434,-120L472,-271Z" fill="#976d55" stroke="#976d55" stroke-width="1.51"/><path d="M162,-305L221,-207L472,-271Z" fill="#985f60" stroke="#985f60" stroke-width="1.51"/><path d="M221,-207L292,-68L434,-120Z" fill="#97655c" stroke="#97655c" stroke-width="1.51"/><path d="M199,636L307,679L401,589Z" fill="#a37e6a" stroke="#a37e6a" stroke-width="1.51"/><path d="M261,435L199,636L401,589Z" fill="#a37f66" stroke="#a37f66" stroke-width="1.51"/><path d="M292,-68L116,-18L352,97Z" fill="#825d7e" stroke="#825d7e" stroke-width="1.51"/><path d="M113,225L329,299L352,97Z" fill="#3c6fa3" stroke="#3c6fa3" stroke-width="1.51"/><path d="M50,1111L-20,1192L356,1242Z" fill="#8273ac" stroke="#8273ac" stroke-width="1.51"/><path d="M299,986L119,1002L356,1242Z" fill="#9d6989" stroke="#9d6989" stroke-width="1.51"/><path d="M119,1002L50,1111L356,1242Z" fill="#93669c" stroke="#93669c" stroke-width="1.51"/><path d="M116,-18L113,225L352,97Z" fill="#5b57a3" stroke="#5b57a3" stroke-width="1.51"/><path d="M158,798L233,837L307,679Z" fill="#5e73a1" stroke="#5e73a1" stroke-width="1.51"/><path d="M113,225L261,435L329,299Z" fill="#357b9b" stroke="#357b9b" stroke-width="1.51"/><path d="M233,837L119,1002L299,986Z" fill="#816398" stroke="#816398" stroke-width="1.51"/><path d="M199,636L158,798L307,679Z" fill="#88708b" stroke="#88708b" stroke-width="1.51"/><path d="M85,482L199,636L261,435Z" fill="#996f79" stroke="#996f79" stroke-width="1.51"/><path d="M221,-207L116,-18L292,-68Z" fill="#9a5067" stroke="#9a5067" stroke-width="1.51"/><path d="M113,225L85,482L261,435Z" fill="#47759b" stroke="#47759b" stroke-width="1.51"/><path d="M45,190L113,225L116,-18Z" fill="#664da1" stroke="#664da1" stroke-width="1.51"/><path d="M158,798L119,1002L233,837Z" fill="#6362aa" stroke="#6362aa" stroke-width="1.51"/><path d="M162,-305L37,-289L221,-207Z" fill="#9c416d" stroke="#9c416d" stroke-width="1.51"/><path d="M37,-289L116,-18L221,-207Z" fill="#a03f69" stroke="#a03f69" stroke-width="1.51"/><path d="M6,970L119,1002L158,798Z" fill="#8c5494" stroke="#8c5494" stroke-width="1.51"/><path d="M0,602L158,798L199,636Z" fill="#9d6082" stroke="#9d6082" stroke-width="1.51"/><path d="M85,482L0,602L199,636Z" fill="#bc5e61" stroke="#bc5e61" stroke-width="1.51"/><path d="M-73,342L85,482L113,225Z" fill="#716f80" stroke="#716f80" stroke-width="1.51"/><path d="M37,-289L-111,-40L116,-18Z" fill="#b63547" stroke="#b63547" stroke-width="1.51"/><path d="M-94,756L6,970L158,798Z" fill="#835c8e" stroke="#835c8e" stroke-width="1.51"/><path d="M0,602L-94,756L158,798Z" fill="#a65c71" stroke="#a65c71" stroke-width="1.51"/><path d="M45,190L-73,342L113,225Z" fill="#7a5e86" stroke="#7a5e86" stroke-width="1.51"/><path d="M-133,77L45,190L116,-18Z" fill="#934378" stroke="#934378" stroke-width="1.51"/><path d="M-111,-40L-133,77L116,-18Z" fill="#b03851" stroke="#b03851" stroke-width="1.51"/><path d="M6,970L50,1111L119,1002Z" fill="#b83e75" stroke="#b83e75" stroke-width="1.51"/><path d="M-73,342L-49,499L85,482Z" fill="#a1695c" stroke="#a1695c" stroke-width="1.51"/><path d="M-49,499L0,602L85,482Z" fill="#bd6051" stroke="#bd6051" stroke-width="1.51"/><path d="M-94,756L-142,911L6,970Z" fill="#ab5167" stroke="#ab5167" stroke-width="1.51"/><path d="M-290,-142L-111,-40L37,-289Z" fill="#c62828" stroke="#c62828" stroke-width="1.51"/><path d="M6,970L-20,1192L50,1111Z" fill="#be4d6f" stroke="#be4d6f" stroke-width="1.51"/><path d="M-184,959L-20,1192L6,970Z" fill="#d5284b" stroke="#d5284b" stroke-width="1.51"/><path d="M-143,86L-73,342L45,190Z" fill="#945170" stroke="#945170" stroke-width="1.51"/><path d="M-133,77L-143,86L45,190Z" fill="#a03f68" stroke="#a03f68" stroke-width="1.51"/><path d="M-184,959L-260,1097L-20,1192Z" fill="#d23f4f" stroke="#d23f4f" stroke-width="1.51"/><path d="M-161,727L-94,756L0,602Z" fill="#c45547" stroke="#c45547" stroke-width="1.51"/><path d="M-142,911L-184,959L6,970Z" fill="#bf4358" stroke="#bf4358" stroke-width="1.51"/><path d="M-49,499L-161,727L0,602Z" fill="#dc502b" stroke="#dc502b" stroke-width="1.51"/><path d="M-143,86L-256,303L-73,342Z" fill="#995764" stroke="#995764" stroke-width="1.51"/><path d="M-211,466L-161,727L-49,499Z" fill="#d95426" stroke="#d95426" stroke-width="1.51"/><path d="M-148,-11L-133,77L-111,-40Z" fill="#b73445" stroke="#b73445" stroke-width="1.51"/><path d="M-73,342L-211,466L-49,499Z" fill="#ae6747" stroke="#ae6747" stroke-width="1.51"/><path d="M-161,727L-142,911L-94,756Z" fill="#a1596b" stroke="#a1596b" stroke-width="1.51"/><path d="M-256,303L-211,466L-73,342Z" fill="#956e56" stroke="#956e56" stroke-width="1.51"/><path d="M-290,-142L-148,-11L-111,-40Z" fill="#c32b2e" stroke="#c32b2e" stroke-width="1.51"/><path d="M-161,727L-184,959L-142,911Z" fill="#a85268" stroke="#a85268" stroke-width="1.51"/><path d="M-148,-11L-143,86L-133,77Z" fill="#af3852" stroke="#af3852" stroke-width="1.51"/><path d="M-148,-11L-290,-142L-143,86Z" fill="#bc303c" stroke="#bc303c" stroke-width="1.51"/><path d="M-290,-142L-256,303L-143,86Z" fill="#a93b5c" stroke="#a93b5c" stroke-width="1.51"/><path d="M-260,1097L-184,959L-161,727Z" fill="#ba475c" stroke="#ba475c" stroke-width="1.51"/><path d="M-211,466L-260,1097L-161,727Z" fill="#ae585f" stroke="#ae585f" stroke-width="1.51"/><path d="M-256,303L-260,1097L-211,466Z" fill="#da502b" stroke="#da502b" stroke-width="1.51"/><path d="M-290,-142L-260,1097L-256,303Z" fill="#a8694b" stroke="#a8694b" stroke-width="1.51"/></svg>