<?xml version="1.0" encoding="UTF-8" standalone="no"?>
<svg
   xmlns:dc="http://purl.org/dc/elements/1.1/"
   xmlns:cc="http://creativecommons.org/ns#"
   xmlns:rdf="http://www.w3.org/1999/02/22-rdf-syntax-ns#"
   xmlns:svg="http://www.w3.org/2000/svg"
   xmlns="http://www.w3.org/2000/svg"
   xmlns:sodipodi="http://sodipodi.sourceforge.net/DTD/sodipodi-0.dtd"
   xmlns:inkscape="http://www.inkscape.org/namespaces/inkscape"
   width="230.4173"
   height="261.18701"
   version="1.1"
   viewBox="0 0 230.4173 261.18702"
   id="svg835"
   sodipodi:docname="hexagon-2307352.svg"
   inkscape:version="0.92.2 (5c3e80d, 2017-08-06)">
  <metadata
     id="metadata841">
    <rdf:RDF>
      <cc:Work
         rdf:about="">
        <dc:format>image/svg+xml</dc:format>
        <dc:type
           rdf:resource="http://purl.org/dc/dcmitype/StillImage" />
        <dc:title></dc:title>
      </cc:Work>
    </rdf:RDF>
  </metadata>
  <defs
     id="defs839" />
  <sodipodi:namedview
     pagecolor="#ffffff"
     bordercolor="#666666"
     borderopacity="1"
     objecttolerance="10"
     gridtolerance="10"
     guidetolerance="10"
     inkscape:pageopacity="0"
     inkscape:pageshadow="2"
     inkscape:window-width="1920"
     inkscape:window-height="1017"
     id="namedview837"
     showgrid="false"
     fit-margin-top="0"
     fit-margin-left="0"
     fit-margin-right="0"
     fit-margin-bottom="0"
     inkscape:zoom="1.7"
     inkscape:cx="134.6442"
     inkscape:cy="130.5968"
     inkscape:window-x="-8"
     inkscape:window-y="-8"
     inkscape:window-maximized="1"
     inkscape:current-layer="g833" />
  <g
     transform="translate(-115.3558,-671.7698)"
     id="g833">
    <path
       d="m 307.32,671.77 a 38.452,38.452 0 0 0 -38.452,38.453 38.452,38.452 0 0 0 1.8878,11.747 l -88.49,51.09 a 38.452,38.452 0 0 0 -28.458,-12.659 38.452,38.452 0 0 0 -38.452,38.452 38.452,38.452 0 0 0 38.452,38.452 38.452,38.452 0 0 0 22.041,-7.0002 l 90.828,52.439 a 38.452,38.452 0 0 0 -1.8625,11.761 38.452,38.452 0 0 0 38.452,38.452 38.452,38.452 0 0 0 38.452,-38.452 38.452,38.452 0 0 0 -38.452,-38.453 38.452,38.452 0 0 0 -28.458,12.66 l -87.73,-50.651 a 38.452,38.452 0 0 0 5.182,-19.208 38.452,38.452 0 0 0 -1.8862,-11.747 l 88.489,-51.09 a 38.452,38.452 0 0 0 28.458,12.659 38.452,38.452 0 0 0 38.452,-38.452 38.452,38.452 0 0 0 -38.452,-38.453 z"
       id="path831"
       inkscape:connector-curvature="0"
       style="fill:#263238;fill-opacity:1" />
  </g>
</svg>
