<?xml version="1.0" encoding="UTF-8" standalone="no"?>
<!-- Created with Inkscape (http://www.inkscape.org/) -->

<svg
   xmlns:dc="http://purl.org/dc/elements/1.1/"
   xmlns:cc="http://creativecommons.org/ns#"
   xmlns:rdf="http://www.w3.org/1999/02/22-rdf-syntax-ns#"
   xmlns:svg="http://www.w3.org/2000/svg"
   xmlns="http://www.w3.org/2000/svg"
   xmlns:xlink="http://www.w3.org/1999/xlink"
   xmlns:sodipodi="http://sodipodi.sourceforge.net/DTD/sodipodi-0.dtd"
   xmlns:inkscape="http://www.inkscape.org/namespaces/inkscape"
   width="234.90767mm"
   height="234.90767mm"
   viewBox="0 0 234.90766 234.90767"
   version="1.1"
   id="svg8"
   inkscape:version="0.92.2 (5c3e80d, 2017-08-06)"
   sodipodi:docname="reports.svg">
  <defs
     id="defs2">
    <clipPath
       id="ae">
      <use
         id="use1791"
         xlink:href="#ad"
         x="0"
         y="0"
         width="100%"
         height="100%" />
    </clipPath>
    <radialGradient
       gradientUnits="userSpaceOnUse"
       r="400"
       cy="1390.7"
       cx="2559.8"
       id="ac">
      <stop
         id="stop1775"
         offset="0"
         stop-opacity="0"
         stop-color="#fff" />
      <stop
         id="stop1777"
         offset="1"
         stop-color="#EDF2C5" />
    </radialGradient>
    <clipPath
       id="ab">
      <use
         id="use1772"
         xlink:href="#aa"
         x="0"
         y="0"
         width="100%"
         height="100%" />
    </clipPath>
  </defs>
  <sodipodi:namedview
     id="base"
     pagecolor="#ffffff"
     bordercolor="#666666"
     borderopacity="1.0"
     inkscape:pageopacity="0.0"
     inkscape:pageshadow="2"
     inkscape:zoom="0.35"
     inkscape:cx="242.58263"
     inkscape:cy="302.5606"
     inkscape:document-units="mm"
     inkscape:current-layer="layer1"
     showgrid="false"
     fit-margin-top="0"
     fit-margin-left="0"
     fit-margin-right="0"
     fit-margin-bottom="0"
     inkscape:window-width="1920"
     inkscape:window-height="1017"
     inkscape:window-x="-8"
     inkscape:window-y="-8"
     inkscape:window-maximized="1" />
  <metadata
     id="metadata5">
    <rdf:RDF>
      <cc:Work
         rdf:about="">
        <dc:format>image/svg+xml</dc:format>
        <dc:type
           rdf:resource="http://purl.org/dc/dcmitype/StillImage" />
        <dc:title></dc:title>
      </cc:Work>
    </rdf:RDF>
  </metadata>
  <g
     inkscape:label="Layer 1"
     inkscape:groupmode="layer"
     id="layer1"
     transform="translate(-160.05625,-2.1313371)">
    <circle
       transform="matrix(0.26458333,0,0,0.26458333,-363.56018,-246.94916)"
       id="circle1780"
       clip-path="url(#ab)"
       r="400"
       cy="1390.7"
       cx="2559.8"
       style="fill:url(#ac)" />
    <polygon
       transform="matrix(0.26458333,0,0,0.26458333,-363.56018,-246.94916)"
       id="polygon1794"
       clip-path="url(#ae)"
       points="3022.2,1799.8 3026,1780.6 3006.9,1780.6 3010.7,1799.8 3004,1895.9 3027.9,1895.9 "
       style="fill:#a3bfd8" />
    <g
       id="g2644"
       transform="matrix(0.26458333,0,0,0.26458333,389.39107,145.04112)"
       style="fill:#00bcd4;fill-opacity:1">
      <circle
         id="circle2634"
         r="443.92001"
         cy="-96.211456"
         cx="-422.85727"
         style="fill:#00bcd4;fill-opacity:1"
         inkscape:transform-center-x="287.26191"
         inkscape:transform-center-y="-59.720234" />
    </g>
    <path
       id="path1751"
       d="M 368.86854,161.98248 H 185.78167 c -2.69708,0 -4.88232,2.18524 -4.88232,4.88231 0,2.69707 2.18524,4.88232 4.88232,4.88232 h 183.08687 c 2.69707,0 4.88231,-2.18525 4.88231,-4.88232 0,-2.69707 -2.19704,-4.88231 -4.88231,-4.88231 z"
       inkscape:connector-curvature="0"
       style="fill:#4f4b45;stroke-width:0.20342985" />
    <path
       id="path1755"
       d="M 351.78043,161.98248 H 202.86977 c 20.8475,-39.05854 -20.84749,-78.117074 0,-117.175606 h 148.91066 c -20.85156,39.058532 20.85156,78.117066 0,117.175606 z"
       inkscape:connector-curvature="0"
       style="clip-rule:evenodd;fill:#c9c8bd;fill-rule:evenodd;stroke-width:0.20342985" />
    <path
       id="path1757"
       d="M 336.88936,150.26492 H 217.76084 c 16.67799,-31.24683 -16.67799,-62.493657 0,-93.740486 h 119.12852 c -16.68125,31.246829 16.68125,62.493656 0,93.740486 z"
       inkscape:connector-curvature="0"
       style="clip-rule:evenodd;fill:#efefef;fill-rule:evenodd;stroke-width:0.20342985" />
    <rect
       id="rect1759"
       height="56.960361"
       width="2.4411583"
       y="74.914482"
       x="236.63914"
       style="fill:#b5b5b6;stroke-width:0.20342985" />
    <rect
       id="rect1761"
       height="2.4411583"
       width="81.371948"
       y="129.43367"
       x="236.63914"
       style="fill:#b5b5b6;stroke-width:0.20342985" />
    <polygon
       transform="matrix(0.20342985,0,0,0.20342985,-243.41464,-179.51522)"
       id="polygon1763"
       points="2486.2,1274.3 2514.6,1325.5 2563.9,1288.5 2624.6,1343.5 2758.1,1389.9 2761.4,1380.5 2629.8,1334.7 2564.5,1275.6 2517.8,1310.6 2486.2,1253.8 2383.6,1437.1 2392.3,1442 "
       style="fill:#0085bd" />
    <polygon
       transform="matrix(0.20342985,0,0,0.20342985,-243.41464,-179.51522)"
       id="polygon1765"
       points="2488.2,1480 2518,1451.2 2563.3,1454.7 2626.8,1472.2 2760.5,1454.1 2759.1,1444.2 2627.5,1462 2565,1444.8 2514.3,1440.9 2484.1,1470.1 2387.9,1471.9 2388,1481.9 "
       style="fill:#dab636" />
    <polygon
       transform="matrix(0.20342985,0,0,0.20342985,-243.41464,-179.51522)"
       id="polygon1767"
       points="2489.7,1370.2 2516.8,1303.2 2561.6,1385.4 2628.7,1371.2 2761.8,1312.1 2757.8,1303 2625.6,1361.6 2566.8,1374.1 2515.5,1279.9 2482.6,1360.9 2387.4,1372.1 2388.5,1382 "
       style="fill:#ca4844" />
    <path
       id="path1782"
       d="m 351.80054,191.64237 c -1.28344,8.75542 -37.61216,8.74281 -38.93241,0 -0.27809,-1.84836 -5.85024,-28.61037 -1.74177,-32.6749 2.16551,-2.14069 15.2255,-6.35718 18.77434,-6.35718 h 4.61216 c 3.54741,0 16.70587,4.17825 18.90861,6.35718 4.08894,4.02791 -1.32229,30.81962 -1.60709,32.69118 z"
       inkscape:connector-curvature="0"
       style="fill:#455264;stroke-width:0.20342985" />
    <rect
       id="rect1784"
       height="2.4411583"
       width="16.183456"
       y="150.97728"
       x="324.1947"
       style="fill:#f2f2f3;stroke-width:0.20342985" />
    <polygon
       transform="matrix(0.20342985,0,0,0.20342985,-281.25283,-206.775)"
       id="polygon1786"
       points="3016.3,1894.7 2976.2,1770.6 3055.7,1770.6 "
       style="fill:#f2f2f3" />
    <path
       id="path1796"
       d="m 315.65105,148.0677 h 33.11228 c 0,0 20.91869,-0.65159 20.91869,-36.85132 0,-11.671791 -4.57716,-30.597848 -19.95036,-30.597848 -2.02311,0 -8.7896,-7.80332 -14.5898,-5.767606 1.6187,0.947165 1.75296,3.800044 1.75296,3.800044 0,0 -4.58429,-4.070199 -11.05743,-2.442767 2.42773,0.948785 3.77545,4.478681 3.77545,4.478681 -29.71296,0 -34.79261,18.85852 -34.79261,30.530716 0,36.19018 20.83123,36.84115 20.83123,36.84115 z"
       inkscape:connector-curvature="0"
       style="fill:#785d59;stroke-width:0.20342985" />
    <path
       id="path1798"
       d="m 300.39381,118.44831 v 11.51291 c 0,0 0,22.63158 31.71674,22.63158 31.7188,0 31.7188,-22.79026 31.7188,-22.79026 v -19.4959 c 0,0 -10.96934,8.09102 -31.7188,8.09102 -20.74984,-0.0204 -31.71471,0.0204 -31.71471,0.0204 z"
       inkscape:connector-curvature="0"
       style="fill:#e0c1a5;stroke-width:0.20342985" />
    <path
       id="path1800"
       d="m 324.82574,145.82997 c 0.34257,0.68576 0.81188,1.27937 1.35952,1.77493 0.82287,0.74414 1.8156,1.27265 2.87608,1.62052 1.06191,0.34746 2.19562,0.51549 3.32893,0.5159 1.51088,-0.002 3.02378,-0.29722 4.36297,-0.92541 0.66867,-0.3149 1.29381,-0.71505 1.84184,-1.21101 0.54744,-0.49556 1.01716,-1.08917 1.35973,-1.77493 0.30148,-0.60276 0.057,-1.33592 -0.546,-1.6374 -0.60276,-0.30149 -1.33593,-0.0572 -1.63742,0.546 -0.19712,0.39323 -0.4691,0.74313 -0.81493,1.05682 -0.51732,0.46972 -1.20594,0.85135 -1.99748,1.11011 -0.79033,0.25937 -1.67932,0.39486 -2.56871,0.39446 -1.1862,0.002 -2.37016,-0.24229 -3.32364,-0.69288 -0.47744,-0.22459 -0.89732,-0.49862 -1.24254,-0.81169 -0.34583,-0.31369 -0.61803,-0.6638 -0.81494,-1.05703 -0.30128,-0.60296 -1.03465,-0.84728 -1.63762,-0.54579 -0.65097,0.30514 -0.89508,1.03749 -0.58994,1.62743 z"
       inkscape:connector-curvature="0"
       style="fill:#db9d77;stroke-width:0.20342985" />
    <path
       id="path1802"
       d="m 323.66618,86.652233 c -12.25197,1.220575 -23.05673,18.814207 -19.53395,16.691007 2.43486,-1.46856 16.45077,-6.246114 16.45077,-6.246114 0,0 -3.68391,3.833644 -2.59373,4.733204 0.83122,0.68658 25.65454,-8.397994 25.65454,-8.397994 0,0 -11.3048,5.629519 -10.24961,5.432396 2.15819,-0.407062 8.09448,-2.034503 8.09448,-2.034503 l -3.64283,1.760886 c 0,0 7.46833,0.769376 7.95473,-0.27341 0.41805,-0.909126 -2.83216,-1.487476 -2.83216,-1.487476 l 2.70013,-1.630694 -6.3399,1.490737 c 0,0 11.85794,-5.203335 10.65811,-5.832746 -6.47478,-3.39158 -25.08698,5.972495 -25.08698,5.972495 0,0 5.5451,-4.217914 4.58511,-5.432181 -1.20797,-1.519423 -15.37482,4.342002 -15.37482,4.342002 0,0 11.77858,-9.317075 9.54086,-9.093306 z"
       inkscape:connector-curvature="0"
       style="fill:#937e7a;stroke-width:0.20342985" />
    <path
       id="path1804"
       d="m 352.51255,130.89822 c 0,2.25197 -1.82131,4.0686 -4.0686,4.0686 -2.24892,0 -4.06861,-1.81663 -4.06861,-4.0686 0,-2.24566 1.81969,-4.0686 4.06861,-4.0686 2.23773,0 4.0686,1.83087 4.0686,4.0686 z"
       inkscape:connector-curvature="0"
       style="fill:#785d59;stroke-width:0.20342985" />
    <path
       id="path1806"
       d="m 320.39096,130.89822 c 0,2.24566 -1.82049,4.0686 -4.0686,4.0686 -2.24728,0 -4.06859,-1.82294 -4.06859,-4.0686 0,-2.24404 1.82131,-4.0686 4.06859,-4.0686 2.25808,0 4.0686,1.83087 4.0686,4.0686 z"
       inkscape:connector-curvature="0"
       style="fill:#785d59;stroke-width:0.20342985" />
  </g>
</svg>
